<svg style="" width="26.687500" height="26.687500" version="1.1" xmlns="http://www.w3.org/2000/svg">
<path d="M22.687500 6.687500 L21.343750 6.687500 L21.343750 -0.000000 L5.343750 -0.000000 L5.343750 6.687500 L4.000000 6.687500 C2.895828 6.687500 1.953129 7.078121 1.171875 7.859375 C0.390621 8.640629 0.000000 9.583328 0.000000 10.687500 L0.000000 10.687500 L0.000000 20.000000 C0.000000 20.750004 0.260414 21.385414 0.781250 21.906250 C1.302086 22.427086 1.937496 22.687500 2.687500 22.687500 L2.687500 22.687500 L5.343750 22.687500 L5.343750 26.687500 L21.343750 26.687500 L21.343750 22.687500 L24.000000 22.687500 C24.750004 22.687500 25.385414 22.427086 25.906250 21.906250 C26.427086 21.385414 26.687500 20.750004 26.687500 20.000000 L26.687500 20.000000 L26.687500 10.687500 C26.687500 9.583328 26.296879 8.640629 25.515625 7.859375 C24.734371 7.078121 23.791672 6.687500 22.687500 6.687500 L22.687500 6.687500 Z M8.000000 2.687500 L18.687500 2.687500 L18.687500 6.687500 L8.000000 6.687500 Z M8.000000 24.000000 L8.000000 18.687500 L18.687500 18.687500 L18.687500 24.000000 Z M22.687500 13.343750 L17.343750 13.343750 L17.343750 10.687500 L22.687500 10.687500 Z M29.343750 27.343750" style="fill:black"/>
</svg>